<?xml version="1.0" ?><svg xmlns="http://www.w3.org/2000/svg" xmlns:xlink="http://www.w3.org/1999/xlink" version="1.1" id="Layer_1" viewBox="0 0 512 512" style="enable-background:new 0 0 512 512;" xml:space="preserve"><g><path d="M102.4,161.1c4.1,0,7.5-3.4,7.5-7.5s-3.4-7.5-7.5-7.5H76.8c-4.1,0-7.5,3.4-7.5,7.5s3.4,7.5,7.5,7.5h5.3v36.2h-5.3   c-4.1,0-7.5,3.4-7.5,7.5s3.4,7.5,7.5,7.5h25.6c4.1,0,7.5-3.4,7.5-7.5s-3.4-7.5-7.5-7.5h-5.3v-36.2H102.4z"/><path d="M313.6,43.7c-56.9,0-106.8,30.9-133.6,76.8H61.2c-9.6,0-17.5,7.9-17.5,17.5v82.4c0,9.6,7.9,17.5,17.5,17.5H164   c3.9,14.7,9.9,28.7,17.9,41.7L52.8,395.9c-5.7,5.1-8.9,12.1-9.1,19.7c-0.2,7.6,2.7,14.8,8,20.2l24.5,24.5   c5.2,5.2,12.1,8.1,19.4,8.1c0.2,0,0.5,0,0.7,0c7.6-0.2,14.6-3.4,19.7-9.1l116.2-129.1c24.4,15.1,52.3,23,81.2,23   c85.3,0,154.7-69.4,154.7-154.7S398.9,43.7,313.6,43.7z M414.9,198.4c0,55.9-45.4,101.3-101.3,101.3   c-55.9,0-101.3-45.4-101.3-101.3c0-55.9,45.4-101.3,101.3-101.3C369.5,97.1,414.9,142.5,414.9,198.4z M61.2,222.9   c-1.4,0-2.5-1.1-2.5-2.5V138c0-1.4,1.1-2.5,2.5-2.5h111.1c-8.6,19.2-13.4,40.5-13.4,62.9c0,8.3,0.6,16.5,1.9,24.5H61.2z"/></g></svg>